<svg width="20" height="19" viewBox="0 0 20 19" fill="none" xmlns="http://www.w3.org/2000/svg">
<path d="M8.3595 1.24072C8.93908 0.252747 10.3678 0.252747 10.9474 1.24072L12.673 4.18506C13.0254 4.78627 13.6134 5.21335 14.2941 5.36279L17.6271 6.09424C18.746 6.34004 19.1875 7.6986 18.4269 8.55518L16.1603 11.1069C15.6977 11.6278 15.473 12.3179 15.5411 13.0112L15.8751 16.4077C15.9872 17.548 14.8312 18.3882 13.7814 17.9292L10.6554 16.562C10.0169 16.2828 9.29003 16.2828 8.65149 16.562L5.52551 17.9292C4.4757 18.3882 3.31968 17.548 3.43176 16.4077L3.76575 13.0112C3.83384 12.3179 3.60923 11.6278 3.14661 11.1069L0.880005 8.55518C0.119371 7.69861 0.560909 6.34004 1.67981 6.09424L5.01282 5.36279C5.69352 5.21335 6.28144 4.78627 6.63391 4.18506L8.3595 1.24072Z" fill="#98989A" stroke="#98989A"/>
</svg>
